<svg width="102" height="102" viewBox="0 0 102 102" fill="none" xmlns="http://www.w3.org/2000/svg">
<g clip-path="url(#clip0_3_98)">
<path d="M50.6 0C37.1 0 24.4 5.3 14.8 14.8C5.2 24.3 0 37.1 0 50.6C0 64.1 5.3 76.8 14.8 86.4C24.3 96 37.1 101.2 50.6 101.2H58V58H101.3V50.6C101.3 37.1 96 24.4 86.5 14.8C77 5.2 64.2 0 50.6 0ZM43.3 43.3V85.8C27 82.3 14.8 67.9 14.8 50.6C14.8 30.8 30.9 14.7 50.7 14.7C67.9 14.7 82.4 26.9 85.8 43.2H43.3V43.3Z" fill="#6BE8C2"/>
<path d="M97.9 83.5H65.8V98.7H97.9V83.5Z" fill="#6BE8C2"/>
</g>
<defs>
<clipPath id="clip0_3_98">
<rect width="101.3" height="101.3" fill="white"/>
</clipPath>
</defs>
</svg>
