<svg viewBox="0 0 19 19" fill="currentColor" xmlns="http://www.w3.org/2000/svg">
<path fill-rule="evenodd" clip-rule="evenodd" d="M13.5 0.242676H5.5C2.73858 0.242676 0.5 2.48126 0.5 5.24268V13.2427C0.5 16.0041 2.73858 18.2427 5.5 18.2427H13.5C16.2614 18.2427 18.5 16.0041 18.5 13.2427V5.24268C18.5 2.48126 16.2614 0.242676 13.5 0.242676ZM16.75 13.2427C16.7445 15.0353 15.2926 16.4872 13.5 16.4927H5.5C3.70735 16.4872 2.25549 15.0353 2.25 13.2427V5.24268C2.25549 3.45003 3.70735 1.99817 5.5 1.99268H13.5C15.2926 1.99817 16.7445 3.45003 16.75 5.24268V13.2427ZM14.25 5.49268C14.8023 5.49268 15.25 5.04496 15.25 4.49268C15.25 3.9404 14.8023 3.49268 14.25 3.49268C13.6977 3.49268 13.25 3.9404 13.25 4.49268C13.25 5.04496 13.6977 5.49268 14.25 5.49268ZM9.5 4.74268C7.01472 4.74268 5 6.7574 5 9.24268C5 11.728 7.01472 13.7427 9.5 13.7427C11.9853 13.7427 14 11.728 14 9.24268C14.0027 8.04838 13.5294 6.90225 12.6849 6.05776C11.8404 5.21327 10.6943 4.74002 9.5 4.74268ZM6.75 9.24268C6.75 10.7615 7.9812 11.9927 9.5 11.9927C11.0188 11.9927 12.25 10.7615 12.25 9.24268C12.25 7.72388 11.0188 6.49268 9.5 6.49268C7.9812 6.49268 6.75 7.72388 6.75 9.24268Z"/>
</svg>
