<svg width="88" height="110" viewBox="0 0 88 110" fill="none" xmlns="http://www.w3.org/2000/svg">
<g clip-path="url(#clip0_4_150)">
<path d="M44 0C28.8677 0 16.5291 12.3386 16.5291 27.4709V32.9418H0V109.884H88V32.9418H71.4709V27.4709C71.4709 12.3386 59.1323 0 44 0ZM27.4709 27.4709C27.4709 18.3915 34.8042 10.9418 44 10.9418C53.1958 10.9418 60.5291 18.3915 60.5291 27.4709V32.9418H27.4709V27.4709ZM76.9418 44V98.9418H10.9418V44H76.9418Z" fill="#6BE8C2"/>
<path d="M44 88C53.0793 88 60.5291 80.6667 60.5291 71.4709C60.5291 62.2751 53.1958 54.9418 44 54.9418C34.8042 54.9418 27.4709 62.2751 27.4709 71.4709C27.4709 80.6667 34.9206 88 44 88ZM44 66C47.0264 66 49.4709 68.4444 49.4709 71.4709C49.4709 74.4974 47.0264 76.9418 44 76.9418C40.9735 76.9418 38.5291 74.4974 38.5291 71.4709C38.5291 68.4444 40.9735 66 44 66Z" fill="#6BE8C2"/>
</g>
<defs>
<clipPath id="clip0_4_150">
<rect width="88" height="110" fill="white"/>
</clipPath>
</defs>
</svg>
