<svg viewBox="0 0 8 10" fill="none" xmlns="http://www.w3.org/2000/svg">
<g clip-path="url(#clip0_2_28)">
<path d="M4 0C2.62434 0 1.50265 1.12169 1.50265 2.49735V2.99471H0V9.98942H8V2.99471H6.49735V2.49735C6.49735 1.12169 5.37566 0 4 0ZM2.49735 2.49735C2.49735 1.67196 3.16402 0.994709 4 0.994709C4.83598 0.994709 5.50265 1.67196 5.50265 2.49735V2.99471H2.49735V2.49735ZM6.99471 4V8.99471H0.994709V4H6.99471Z" fill="currentColor"/>
<path d="M4 8C4.8254 8 5.50265 7.33333 5.50265 6.49735C5.50265 5.66137 4.83598 4.99471 4 4.99471C3.16402 4.99471 2.49735 5.66137 2.49735 6.49735C2.49735 7.33333 3.1746 8 4 8ZM4 6C4.27513 6 4.49735 6.22222 4.49735 6.49735C4.49735 6.77248 4.27513 6.9947 4 6.9947C3.72487 6.9947 3.50265 6.77248 3.50265 6.49735C3.50265 6.22222 3.72487 6 4 6Z" fill="currentColor"/>
</g>
<defs>
<clipPath id="clip0_2_28">
<rect width="8" height="10" fill="currentColor"/>
</clipPath>
</defs>
</svg>
