<svg width="90" height="30" viewBox="0 0 90 30" fill="none" xmlns="http://www.w3.org/2000/svg">
<path d="M31.8854 6.90963H30.9933C30.3303 6.90963 29.2033 6.90588 28.4019 7.89452L28.3079 7.90156L27.8081 6.88477H25.7266V22.9752H28.7943V11.6004C28.7943 10.4855 29.5694 9.80048 30.5246 9.80048H31.8859V6.90963H31.8854Z" fill="#020202"/>
<path d="M18.0421 6.49023C14.3429 6.49023 13.2007 9.36841 13.1992 11.3344V18.4675C13.2007 20.4335 14.3429 23.3117 18.0421 23.3117C21.7427 23.3117 22.884 20.4335 22.8854 18.4675V17.9368H19.8187V18.4637C19.8187 19.6363 19.1456 20.4302 18.0421 20.4302C16.94 20.4302 16.2669 19.6363 16.2669 18.4637V16.4325H22.8854V11.3349C22.8835 9.36841 21.7427 6.49023 18.0421 6.49023ZM16.2669 13.5416V11.3387C16.2669 10.1661 16.94 9.37216 18.0421 9.37216C19.1456 9.37216 19.8187 10.1661 19.8187 11.3387V13.5416H16.2669Z" fill="#020202"/>
<path d="M49.6234 0.344727H46.5547V3.35944H49.6234V0.344727Z" fill="#020202"/>
<path d="M49.6234 6.875H46.5547V22.9654H49.6234V6.875Z" fill="#020202"/>
<path d="M67.0941 0.344727H64.0273V3.37024H67.0941V0.344727Z" fill="#020202"/>
<path d="M67.0941 6.875H64.0273V22.9654H67.0941V6.875Z" fill="#020202"/>
<path d="M89.2822 22.9658H80.0781V25.9824H89.2822V22.9658Z" fill="#020202"/>
<path d="M58.4025 19.9495V0.344727H52.784V3.37024H55.3338V19.9495H52.2656V22.9661H61.4693V19.9495H58.4025Z" fill="#020202"/>
<path d="M69.4609 22.9657H72.6738L74.7701 17.809L76.8665 22.9657H80.0798L76.4622 14.8267L80.0631 6.88379H76.8942L74.7701 11.7613L72.6461 6.88379H69.4776L73.08 14.8267L69.4609 22.9657Z" fill="#020202"/>
<path d="M8.40344 22.9661L12.4936 0.344727H9.30319L6.13618 18.6615L3.0107 0.344727H-0.179688L3.86749 22.9661H8.40344Z" fill="#020202"/>
<path d="M43.402 11.414C43.4006 9.44751 42.2579 6.56934 38.5591 6.56934C34.8595 6.56934 33.7163 9.44751 33.7153 11.414V18.3791C33.7163 20.346 34.8595 23.2232 38.5591 23.2232C39.2322 23.2232 39.8226 23.0698 40.3343 22.8338V24.3958C40.3343 25.5689 39.6613 26.3618 38.5591 26.3618C37.4556 26.3618 36.7835 25.5689 36.7835 24.3958V23.967H33.7148V24.401C33.7163 26.3665 34.859 29.2447 38.5587 29.2447C42.2574 29.2447 43.4001 26.3665 43.4015 24.401V11.414H43.402ZM40.3343 18.3748C40.3343 19.5474 39.6613 20.3413 38.5591 20.3413C37.4556 20.3413 36.7835 19.5474 36.7835 18.3748V11.4178C36.7835 10.2452 37.4556 9.45173 38.5591 9.45173C39.6613 9.45173 40.3343 10.2452 40.3343 11.4178V18.3748Z" fill="#020202"/>
</svg>
