<svg viewBox="0 0 8 9" fill="none" xmlns="http://www.w3.org/2000/svg">
<g clip-path="url(#clip0_2_24)">
<path d="M1.14518 9H6.87107L6.87919 7.75045H1.14518V9Z" fill="currentColor"/>
<path d="M4.00406 4.89201C5.57157 4.89201 6.85482 6.17423 6.85482 7.75862H8.00812C8.00812 6.68058 7.59391 5.67604 6.83858 4.91652C6.12386 4.19782 5.18985 3.78131 4.18274 3.74047C5.10863 3.62613 5.82335 2.83394 5.82335 1.8784C5.81523 0.841198 4.97868 0 3.94721 0C2.92386 0 2.08731 0.841198 2.08731 1.87024C2.08731 2.83394 2.81827 3.6343 3.76041 3.73231C2.78579 3.78947 1.86802 4.19782 1.17766 4.90018C0.414213 5.66788 0 6.68058 0 7.75045H1.1533C1.1533 6.17423 2.42843 4.89201 4.00406 4.89201ZM3.24061 1.87024C3.24061 1.47822 3.55736 1.15971 3.94721 1.15971C4.33706 1.15971 4.65381 1.47822 4.65381 1.87024C4.65381 2.26225 4.33706 2.58076 3.94721 2.58076C3.55736 2.58893 3.24061 2.27042 3.24061 1.87024Z" fill="currentColor"/>
</g>
<defs>
<clipPath id="clip0_2_24">
<rect width="8" height="9" fill="currentColor"/>
</clipPath>
</defs>
</svg>
