<svg width="19" height="19" viewBox="0 0 19 19" fill="none" xmlns="http://www.w3.org/2000/svg">
<g clip-path="url(#clip0_2_86)">
<path d="M9.48995 19C4.26243 19 0 14.7376 0 9.48995C0 4.24233 4.26243 0 9.48995 0C14.7175 0 18.9799 4.26243 18.9799 9.48995C18.9799 14.7175 14.7376 19 9.48995 19ZM9.48995 17.0899C13.6921 17.0899 17.0899 13.6921 17.0899 9.48995C17.0899 5.28783 13.6921 1.88995 9.48995 1.88995C5.28783 1.88995 1.88995 5.30794 1.88995 9.48995C1.88995 13.672 5.30794 17.0899 9.48995 17.0899ZM8.54497 8.54497H10.455H14.255V10.455H10.455L8.5 10.5L8.56508 10.455H4.74497V8.56508H8.54497V8.54497Z" fill="#6BE8C2"/>
</g>
<defs>
<clipPath id="clip0_2_86">
<rect width="19" height="19" fill="white"/>
</clipPath>
</defs>
</svg>
