<svg width="20" height="30" viewBox="0 0 99 111" fill="none" xmlns="http://www.w3.org/2000/svg">
<g clip-path="url(#clip0_4_127)">
<path d="M14.1 110.2H84.6L84.7 94.9H14.1V110.2Z" fill="currentColor"/>
<path d="M49.3 59.9C68.6 59.9 84.4 75.6 84.4 95H98.6C98.6 81.8 93.5 69.5 84.2 60.2C75.4 51.4 63.9 46.3 51.5 45.8C62.9 44.4 71.7 34.7 71.7 23C71.6 10.3 61.3 0 48.6 0C36 0 25.7 10.3 25.7 22.9C25.7 34.7 34.7 44.5 46.3 45.7C34.3 46.4 23 51.4 14.5 60C5.1 69.4 0 81.8 0 94.9H14.2C14.2 75.6 29.9 59.9 49.3 59.9ZM39.9 22.9C39.9 18.1 43.8 14.2 48.6 14.2C53.4 14.2 57.3 18.1 57.3 22.9C57.3 27.7 53.4 31.6 48.6 31.6C43.8 31.7 39.9 27.8 39.9 22.9Z" fill="currentColor"/>
</g>
<defs>
<clipPath id="clip0_4_127">
<rect width="98.5" height="110.2" fill="white"/>
</clipPath>
</defs>
</svg>
