<svg viewBox="0 0 9 10" fill="currentColor" xmlns="http://www.w3.org/2000/svg">
<path d="M8 2.00588V4.41246C8 6.49941 6.58815 8.36075 4.50494 9C2.41185 8.35135 1 6.49941 1 4.40306V2.00588L1.37518 1.94947L1.7701 1.87427L2.18477 1.78026L2.61918 1.66745L3.06347 1.52644L3.5275 1.36663L4.01128 1.19741L4.50494 1L4.99859 1.19741L5.4725 1.37603L5.93653 1.53584L6.38082 1.66745L6.81523 1.78026L7.2299 1.87427L7.62482 1.94947L8 2.00588ZM7.29901 4.40306V2.56992C6.34133 2.3819 5.40338 2.09988 4.50494 1.72385C3.60649 2.09988 2.66855 2.3819 1.71086 2.56992V4.40306C1.71086 6.12338 2.82652 7.6651 4.50494 8.28555C6.18336 7.6651 7.29901 6.12338 7.29901 4.40306Z" fill="currentColor" stroke="currentColor" stroke-width="0.5" stroke-miterlimit="10"/>
</svg>
